<?xml version="1.0" encoding="UTF-8"?>
<!DOCTYPE svg PUBLIC "-//W3C//DTD SVG 1.1//EN" "http://www.w3.org/Graphics/SVG/1.1/DTD/svg11.dtd">
<svg xmlns="http://www.w3.org/2000/svg" version="1.1" width="200px" height="200px" style="shape-rendering:geometricPrecision; text-rendering:geometricPrecision; image-rendering:optimizeQuality; fill-rule:evenodd; clip-rule:evenodd" xmlns:xlink="http://www.w3.org/1999/xlink">
<g><path style="opacity:0.964" fill="#e0ded2" d="M 81.5,-0.5 C 93.5,-0.5 105.5,-0.5 117.5,-0.5C 161.144,10.4772 188.477,37.8106 199.5,81.5C 199.5,93.5 199.5,105.5 199.5,117.5C 188.471,161.196 161.137,188.529 117.5,199.5C 105.5,199.5 93.5,199.5 81.5,199.5C 37.7813,188.448 10.448,161.115 -0.5,117.5C -0.5,105.5 -0.5,93.5 -0.5,81.5C 10.5,37.8333 37.8333,10.5 81.5,-0.5 Z M 88.5,12.5 C 132.007,10.2146 162.84,28.5479 181,67.5C 195.268,115.728 181.101,152.562 138.5,178C 97.4857,194.959 61.9857,187.459 32,155.5C 10.2746,126.081 6.60789,94.4142 21,60.5C 35.8115,33.8784 58.3115,17.8784 88.5,12.5 Z"/></g>
<g><path style="opacity:0.945" fill="#e1ded2" d="M 96.5,22.5 C 100.639,21.7042 103.805,23.0375 106,26.5C 106.667,32.1667 106.667,37.8333 106,43.5C 101.667,48.8333 97.3333,48.8333 93,43.5C 92.3333,37.8333 92.3333,32.1667 93,26.5C 94.1022,25.051 95.2689,23.7177 96.5,22.5 Z"/></g>
<g><path style="opacity:0.921" fill="#e0ded2" d="M 48.5,42.5 C 56.9965,44.4849 58.6632,48.9849 53.5,56C 46.3689,57.5294 42.8689,54.6961 43,47.5C 44.7297,45.5981 46.563,43.9314 48.5,42.5 Z"/></g>
<g><path style="opacity:0.935" fill="#e0ded2" d="M 147.5,42.5 C 153.071,43.0059 155.904,46.0059 156,51.5C 154.287,56.038 151.12,57.538 146.5,56C 140.954,51.0974 141.288,46.5974 147.5,42.5 Z"/></g>
<g><path style="opacity:0.948" fill="#e0ded2" d="M 96.5,57.5 C 100.594,56.7046 103.761,58.038 106,61.5C 106.333,73.5 106.667,85.5 107,97.5C 118.333,108.833 129.667,120.167 141,131.5C 141.833,138.667 138.667,141.833 131.5,141C 118.667,128.167 105.833,115.333 93,102.5C 92.3333,88.8333 92.3333,75.1667 93,61.5C 94.3756,60.2949 95.5423,58.9616 96.5,57.5 Z"/></g>
<g><path style="opacity:0.945" fill="#e1ded2" d="M 26.5,92.5 C 32.1764,92.3339 37.8431,92.5006 43.5,93C 48.8333,97.3333 48.8333,101.667 43.5,106C 37.8333,106.667 32.1667,106.667 26.5,106C 21.2215,101.503 21.2215,97.0028 26.5,92.5 Z"/></g>
<g><path style="opacity:0.951" fill="#e1ded2" d="M 155.5,92.5 C 161.176,92.3339 166.843,92.5006 172.5,93C 177.833,97.3333 177.833,101.667 172.5,106C 166.833,106.667 161.167,106.667 155.5,106C 150.221,101.503 150.221,97.0028 155.5,92.5 Z"/></g>
<g><path style="opacity:0.916" fill="#e0ded2" d="M 146.5,142.5 C 154.734,142.377 157.401,146.044 154.5,153.5C 150.345,157.625 146.512,157.291 143,152.5C 141.756,148.191 142.923,144.858 146.5,142.5 Z"/></g>
<g><path style="opacity:0.933" fill="#e0ded2" d="M 46.5,142.5 C 54.3296,141.495 57.4963,144.828 56,152.5C 49.9398,158.074 45.4398,156.907 42.5,149C 43.25,146.429 44.5833,144.262 46.5,142.5 Z"/></g>
<g><path style="opacity:0.951" fill="#e1ded2" d="M 96.5,151.5 C 100.639,150.704 103.805,152.037 106,155.5C 106.667,161.167 106.667,166.833 106,172.5C 101.667,177.833 97.3333,177.833 93,172.5C 92.3333,166.833 92.3333,161.167 93,155.5C 94.1022,154.051 95.2689,152.718 96.5,151.5 Z"/></g>
</svg>
