<svg version="1.1" id="Layer_1" xmlns="http://www.w3.org/2000/svg" xmlns:xlink="http://www.w3.org/1999/xlink" x="0px" y="0px"
	 width="100%" viewBox="0 0 235 236" enable-background="new 0 0 235 236" xml:space="preserve">
<path fill="#000000" opacity="1.000000" stroke="none" 
	d="
M131.000000,237.000000 
	C87.333336,237.000000 44.166672,237.000000 1.000006,237.000000 
	C1.000004,158.333344 1.000004,79.666679 1.000002,1.000016 
	C79.333321,1.000011 157.666641,1.000011 235.999969,1.000005 
	C235.999985,79.666649 235.999985,158.333298 236.000000,236.999969 
	C201.166672,237.000000 166.333328,237.000000 131.000000,237.000000 
M157.176453,200.679962 
	C152.351151,187.047302 140.953506,186.262604 129.149628,186.980835 
	C129.149628,183.353073 129.149628,180.379044 129.149628,177.355453 
	C130.803970,176.881302 132.318512,176.364334 133.870789,176.015121 
	C149.405914,172.520126 162.480240,165.080627 172.303650,152.304138 
	C174.436172,149.530563 177.055740,147.882477 180.707886,146.711182 
	C186.874557,144.733490 193.286774,142.024673 198.207993,137.948059 
	C211.600967,126.853607 216.611389,111.547638 216.952805,94.598022 
	C217.194397,82.603317 216.592072,70.580902 217.147720,58.607117 
	C217.499420,51.028637 210.780106,41.657761 202.178604,40.070278 
	C198.183228,39.332897 194.046387,39.027271 189.983444,39.096806 
	C186.733368,39.152424 184.450424,38.186718 182.218597,35.832470 
	C178.512817,31.923422 173.973679,29.903521 168.294876,29.928257 
	C134.796722,30.074186 101.295921,29.844501 67.801010,30.205177 
	C63.798206,30.248280 58.977459,32.184101 56.056175,34.886250 
	C52.494320,38.180927 49.122387,39.495026 44.601120,39.024178 
	C43.117271,38.869644 41.602238,38.955593 40.104057,39.007034 
	C28.942194,39.390308 19.059095,48.739319 19.268587,58.718887 
	C19.501383,69.808647 19.577803,80.905876 20.071278,91.984314 
	C20.338800,97.990173 20.643135,104.140533 22.125311,109.919357 
	C27.008556,128.958511 37.531021,142.836868 57.988583,147.168091 
	C60.167690,147.629440 62.460144,149.579910 63.835957,151.468903 
	C70.664528,160.844498 79.762314,167.299561 90.138824,171.900711 
	C95.785828,174.404709 101.924210,175.800552 107.638603,177.631378 
	C107.638603,180.770966 107.638603,183.836609 107.638603,186.872910 
	C86.342186,187.610825 77.927124,193.565018 79.407112,206.803864 
	C105.486847,206.803864 131.587112,206.803864 157.784958,206.803864 
	C157.784958,204.823807 157.784958,203.038437 157.176453,200.679962 
z"/>
<path fill="#E0DED2" opacity="1.000000" stroke="none" 
	d="
M157.480713,200.966522 
	C157.784958,203.038437 157.784958,204.823807 157.784958,206.803864 
	C131.587112,206.803864 105.486847,206.803864 79.407112,206.803864 
	C77.927124,193.565018 86.342186,187.610825 107.638603,186.872910 
	C107.638603,183.836609 107.638603,180.770966 107.638603,177.631378 
	C101.924210,175.800552 95.785828,174.404709 90.138824,171.900711 
	C79.762314,167.299561 70.664528,160.844498 63.835957,151.468903 
	C62.460144,149.579910 60.167690,147.629440 57.988583,147.168091 
	C37.531021,142.836868 27.008556,128.958511 22.125311,109.919357 
	C20.643135,104.140533 20.338800,97.990173 20.071278,91.984314 
	C19.577803,80.905876 19.501383,69.808647 19.268587,58.718887 
	C19.059095,48.739319 28.942194,39.390308 40.104057,39.007034 
	C41.602238,38.955593 43.117271,38.869644 44.601120,39.024178 
	C49.122387,39.495026 52.494320,38.180927 56.056175,34.886250 
	C58.977459,32.184101 63.798206,30.248280 67.801010,30.205177 
	C101.295921,29.844501 134.796722,30.074186 168.294876,29.928257 
	C173.973679,29.903521 178.512817,31.923422 182.218597,35.832470 
	C184.450424,38.186718 186.733368,39.152424 189.983444,39.096806 
	C194.046387,39.027271 198.183228,39.332897 202.178604,40.070278 
	C210.780106,41.657761 217.499420,51.028637 217.147720,58.607117 
	C216.592072,70.580902 217.194397,82.603317 216.952805,94.598022 
	C216.611389,111.547638 211.600967,126.853607 198.207993,137.948059 
	C193.286774,142.024673 186.874557,144.733490 180.707886,146.711182 
	C177.055740,147.882477 174.436172,149.530563 172.303650,152.304138 
	C162.480240,165.080627 149.405914,172.520126 133.870789,176.015121 
	C132.318512,176.364334 130.803970,176.881302 129.149628,177.355453 
	C129.149628,180.379044 129.149628,183.353073 129.149628,186.980835 
	C140.953506,186.262604 152.351151,187.047302 157.480713,200.966522 
M70.000481,54.630634 
	C70.000290,73.789452 69.994522,92.948280 70.010826,112.107086 
	C70.012093,113.591843 70.001076,115.108536 70.278671,116.556137 
	C72.677994,129.067993 78.680962,139.437943 88.803223,147.302032 
	C95.278328,152.332596 102.584526,156.129654 110.657211,156.806656 
	C120.544090,157.635788 130.212662,156.969650 139.767181,152.287399 
	C154.250992,145.189560 166.625488,128.248550 166.916031,112.363419 
	C167.269363,93.044479 167.004776,73.714134 166.988770,54.388748 
	C166.987595,52.963894 166.835266,51.539158 166.746613,49.999931 
	C135.337204,49.999931 104.359390,50.045383 73.382187,49.928452 
	C70.340279,49.916969 69.610489,51.039997 70.000481,54.630634 
M44.416203,111.930038 
	C46.027874,114.601418 47.639545,117.272797 49.218918,119.890640 
	C49.218918,99.797829 49.218918,80.015587 49.218918,60.286484 
	C45.704624,60.286484 42.974968,60.286484 39.999660,60.286484 
	C39.999660,70.520134 39.502316,80.501953 40.168556,90.405502 
	C40.639450,97.405167 42.686577,104.298782 44.416203,111.930038 
M197.000275,74.504395 
	C197.000275,69.737511 197.000275,64.970627 197.000275,60.306984 
	C193.674118,60.306984 190.940231,60.306984 187.614120,60.306984 
	C187.614120,80.249969 187.614120,99.886810 187.614120,119.523659 
	C189.863266,116.484383 191.557510,113.237305 193.016907,109.887917 
	C197.829514,98.842613 196.995728,87.119370 197.000275,74.504395 
z"/>
<path fill="#000000" opacity="1.000000" stroke="none" 
	d="
M70.000504,54.146114 
	C69.610489,51.039997 70.340279,49.916969 73.382187,49.928452 
	C104.359390,50.045383 135.337204,49.999931 166.746613,49.999931 
	C166.835266,51.539158 166.987595,52.963894 166.988770,54.388748 
	C167.004776,73.714134 167.269363,93.044479 166.916031,112.363419 
	C166.625488,128.248550 154.250992,145.189560 139.767181,152.287399 
	C130.212662,156.969650 120.544090,157.635788 110.657211,156.806656 
	C102.584526,156.129654 95.278328,152.332596 88.803223,147.302032 
	C78.680962,139.437943 72.677994,129.067993 70.278671,116.556137 
	C70.001076,115.108536 70.012093,113.591843 70.010826,112.107086 
	C69.994522,92.948280 70.000290,73.789452 70.000504,54.146114 
z"/>
<path fill="#000000" opacity="1.000000" stroke="none" 
	d="
M44.223122,111.584892 
	C42.686577,104.298782 40.639450,97.405167 40.168556,90.405502 
	C39.502316,80.501953 39.999660,70.520134 39.999660,60.286484 
	C42.974968,60.286484 45.704624,60.286484 49.218918,60.286484 
	C49.218918,80.015587 49.218918,99.797829 49.218918,119.890640 
	C47.639545,117.272797 46.027874,114.601418 44.223122,111.584892 
z"/>
<path fill="#000000" opacity="1.000000" stroke="none" 
	d="
M197.000275,75.003799 
	C196.995728,87.119370 197.829514,98.842613 193.016907,109.887917 
	C191.557510,113.237305 189.863266,116.484383 187.614120,119.523659 
	C187.614120,99.886810 187.614120,80.249969 187.614120,60.306984 
	C190.940231,60.306984 193.674118,60.306984 197.000275,60.306984 
	C197.000275,64.970627 197.000275,69.737511 197.000275,75.003799 
z"/>
</svg>