<svg version="1.1" id="Layer_1" xmlns="http://www.w3.org/2000/svg" xmlns:xlink="http://www.w3.org/1999/xlink" x="0px" y="0px"
	 width="100%" viewBox="0 0 272 272" enable-background="new 0 0 272 272" xml:space="preserve">
<path fill="#000000" opacity="1.000000" stroke="none" 
	d="
M129.000000,273.000000 
	C86.000000,273.000000 43.500000,273.000000 1.000000,273.000000 
	C1.000000,182.333328 1.000000,91.666664 1.000000,1.000000 
	C91.666664,1.000000 182.333328,1.000000 273.000000,1.000000 
	C273.000000,91.666664 273.000000,182.333328 273.000000,273.000000 
	C225.166672,273.000000 177.333328,273.000000 129.000000,273.000000 
M202.321075,152.372879 
	C185.527908,142.678574 168.805222,132.858948 151.905579,123.353935 
	C145.483749,119.742065 133.211990,124.516335 130.354218,131.348236 
	C128.276627,136.315018 125.779297,140.993652 121.548988,144.433456 
	C116.960457,148.164520 111.557861,150.229065 105.880470,148.045364 
	C100.436317,145.951355 100.807068,140.583435 100.556320,135.681458 
	C100.306969,130.806595 101.803345,126.094276 101.563118,121.293266 
	C101.273911,115.513321 102.001694,110.469131 107.299782,106.831619 
	C108.727669,105.851273 110.179169,104.058876 110.607819,101.409058 
	C105.570839,98.105186 99.412323,97.105789 93.924911,94.592926 
	C90.375259,92.967400 88.159836,93.940933 86.212044,97.362885 
	C78.499878,110.911842 70.594048,124.351143 62.687737,137.788574 
	C60.762703,141.060303 61.577415,143.773270 63.773357,146.457565 
	C66.501923,149.792938 69.291817,153.088867 71.833099,156.564255 
	C76.034599,162.310150 77.385750,162.410156 81.601387,156.852798 
	C88.310699,148.008148 96.441170,147.471832 104.221985,155.544083 
	C105.610687,156.984787 106.766708,157.188980 108.583000,156.807434 
	C118.159317,154.795776 121.836243,156.705673 126.550385,165.963516 
	C127.274689,167.385925 128.276215,168.174606 129.870499,168.657318 
	C140.680328,171.930374 142.238663,174.023346 142.333725,185.190674 
	C142.349945,187.095016 142.381729,188.513107 144.477234,189.667664 
	C151.840134,193.724365 153.757248,197.880783 152.239868,205.899429 
	C151.834854,208.039719 151.578156,209.757095 153.916214,210.954285 
	C157.462555,212.770203 160.848328,214.911072 164.442261,216.619537 
	C168.363663,218.483673 172.643250,216.069504 173.518753,211.827148 
	C174.473740,207.199661 171.774185,204.740692 168.272888,202.686966 
	C164.264771,200.335922 160.293137,197.922485 156.277023,195.585388 
	C154.665665,194.647675 154.331238,193.210510 155.031540,191.758636 
	C155.771561,190.224365 157.259659,189.868607 158.852768,190.605728 
	C160.510773,191.372910 162.179565,192.130325 163.776611,193.013245 
	C168.700485,195.735413 173.608398,198.487442 178.491577,201.281921 
	C182.329773,203.478409 185.437576,202.035004 187.560410,198.898590 
	C189.842773,195.526505 188.789337,192.441467 185.681137,189.719833 
	C181.087418,185.697495 175.158478,184.070572 170.252136,180.641953 
	C168.109589,179.144699 165.535690,177.407242 167.227722,174.765991 
	C168.706894,172.457031 171.312241,173.886276 173.408691,175.122559 
	C180.113144,179.076141 186.857788,182.962204 193.612320,186.829987 
	C198.097168,189.398117 201.385406,188.693878 203.769821,184.754196 
	C206.032715,181.015289 204.544174,177.052841 200.089691,174.513901 
	C193.608047,170.819580 187.166290,167.054092 180.747910,163.250824 
	C178.827362,162.112747 176.821686,160.544464 178.393448,158.091049 
	C179.911057,155.722153 182.078613,156.687286 184.065384,157.938583 
	C186.453354,159.442535 188.833527,161.007278 191.378494,162.201828 
	C194.958099,163.881989 197.679398,167.053680 201.796814,167.819748 
	C205.519791,168.512436 207.881836,166.841370 209.681061,163.938995 
	C211.498596,161.007095 210.420319,158.614532 208.232574,156.344925 
	C206.692169,154.746918 204.990585,153.515503 202.321075,152.372879 
M107.375626,127.552055 
	C107.377098,130.881378 107.324799,134.211792 107.392647,137.539749 
	C107.494362,142.528503 108.599281,143.029984 113.588768,141.848999 
	C119.512825,140.446777 122.205101,135.527206 123.640289,130.998215 
	C126.354248,122.433861 132.754501,119.272926 140.107285,116.701950 
	C145.384537,114.856712 150.422226,115.180672 155.390533,118.067513 
	C169.695526,126.379425 184.487564,133.930954 198.297394,142.987198 
	C206.189117,148.162460 212.363754,148.124130 219.718674,142.935471 
	C222.136780,141.229568 222.646378,140.009735 221.385223,137.837387 
	C213.397980,124.079399 205.320816,110.373619 197.330032,96.617676 
	C195.742172,93.884209 193.796005,93.421265 190.672653,94.003082 
	C179.067612,96.164795 167.357162,96.844765 155.686218,94.439087 
	C143.857788,92.000969 132.339706,90.394714 122.810257,100.564644 
	C115.722427,108.128876 105.169456,113.538101 107.375626,127.552055 
M59.317688,67.093140 
	C56.454502,67.985298 55.454334,70.598740 54.123264,72.845764 
	C49.815483,80.117867 45.534142,87.406639 41.336040,94.742470 
	C35.085087,105.665482 28.811348,116.577866 22.757524,127.610138 
	C20.222530,132.229828 21.198029,134.750229 25.820377,137.411819 
	C30.122431,139.888962 34.561512,142.142593 38.761543,144.779343 
	C46.606689,149.704422 49.275517,149.122726 53.780579,141.278046 
	C62.613651,125.897018 71.439056,110.510933 80.387856,95.197197 
	C88.484901,81.341019 88.577209,80.934135 74.281258,73.363304 
	C69.686272,70.929901 65.601418,67.115967 59.317688,67.093140 
M261.513947,127.879425 
	C253.533127,113.946335 245.721176,99.912346 237.487091,86.130562 
	C234.261215,80.731247 231.921417,74.817596 227.884308,69.873222 
	C225.573746,67.043396 223.139099,65.760315 219.733887,67.723854 
	C213.716385,71.193710 207.729218,74.716209 201.707535,78.178726 
	C197.761673,80.447639 197.043671,83.477386 199.297302,87.374245 
	C204.100952,95.680382 208.856934,104.014069 213.648773,112.327057 
	C219.773666,122.952682 225.919540,133.566208 232.046112,144.190887 
	C234.240540,147.996445 237.233963,149.175201 241.209610,146.965393 
	C246.986954,143.754135 252.725784,140.473587 258.503204,137.262466 
	C262.080414,135.274231 263.473999,132.525360 261.513947,127.879425 
M110.634331,162.917297 
	C103.218407,171.005341 97.172577,180.106613 91.337692,189.339325 
	C88.651619,193.589569 89.701363,197.477646 93.883408,199.715469 
	C97.962891,201.898407 100.785606,199.965576 103.136292,196.575760 
	C108.128815,189.376282 113.136505,182.185165 118.279388,175.093155 
	C120.383759,172.191238 121.667015,169.079239 120.019707,165.830521 
	C118.276451,162.392578 114.831642,162.050674 110.634331,162.917297 
M130.661423,192.309006 
	C132.270691,190.195053 134.051666,188.188004 135.449692,185.942535 
	C137.644394,182.417435 136.756104,179.166031 133.722397,176.604507 
	C131.093872,174.385101 126.204590,174.997009 123.995987,177.950867 
	C119.129951,184.458862 114.368454,191.051880 109.781982,197.759064 
	C107.569092,200.995178 107.635597,204.463287 110.831291,207.178925 
	C113.710892,209.625946 118.307106,209.023590 121.035576,205.843857 
	C124.492149,201.815598 127.591270,197.506027 130.661423,192.309006 
M79.764519,170.181351 
	C79.040024,171.293137 78.284004,172.385834 77.596840,173.520233 
	C75.332466,177.258347 75.947060,180.735687 79.376251,183.175262 
	C82.652756,185.506210 85.642647,184.718384 88.579468,181.634506 
	C92.511833,177.505219 95.143784,172.511246 98.574913,168.063766 
	C101.103264,164.786499 99.955559,159.313553 96.924072,157.364594 
	C93.591766,155.222229 89.464310,156.428253 86.784615,160.273529 
	C84.610153,163.393799 82.380936,166.475906 79.764519,170.181351 
M146.591385,200.766983 
	C146.413132,197.175323 143.795609,196.089203 140.923309,195.487122 
	C138.057922,194.886490 135.619080,195.869812 133.964554,198.314865 
	C132.292938,200.785202 131.002350,203.543396 129.137543,205.845566 
	C126.696602,208.859024 127.220299,211.216354 129.873291,213.610840 
	C132.715897,216.176468 136.552887,216.963409 138.883057,214.472900 
	C142.263260,210.860123 145.942459,206.970795 146.591385,200.766983 
z"/>
</svg>