<svg version="1.1" id="Layer_1" xmlns="http://www.w3.org/2000/svg" xmlns:xlink="http://www.w3.org/1999/xlink" x="0px" y="0px"
	 width="100%" viewBox="0 0 192 192" enable-background="new 0 0 192 192" xml:space="preserve">
<path fill="#000000" opacity="1.000000" stroke="none" 
	d="
M1.000000,104.000000 
	C1.000000,69.705711 1.000000,35.411423 1.000000,1.058566 
	C64.888130,1.058566 128.776321,1.058566 193.000000,1.058566 
	C193.000000,30.686718 193.000000,60.374702 192.719849,90.349670 
	C184.098038,80.491577 172.425095,77.443123 158.772476,75.979980 
	C161.954971,74.030823 163.871735,72.804092 165.837372,71.661415 
	C180.464371,63.158306 183.738983,47.872902 178.358170,34.262188 
	C174.179825,23.693094 165.010910,17.380163 153.394913,16.529419 
	C140.226273,15.564959 130.405945,21.641176 124.186935,33.174759 
	C120.137566,40.684608 120.923424,44.504269 126.895760,50.517525 
	C129.714111,53.355190 131.505417,57.080658 134.024689,59.921856 
	C138.231827,64.666580 135.076981,72.953857 142.875061,75.637383 
	C138.837555,76.302185 137.561890,79.019775 137.575714,81.887108 
	C137.597076,86.323387 135.702042,89.914795 133.706360,93.548615 
	C131.975723,96.699875 130.104218,99.773773 128.193497,103.056175 
	C129.067505,103.623260 129.686539,104.240356 130.426208,104.471550 
	C137.922424,106.814598 143.728912,111.504478 148.771729,117.354317 
	C156.454178,126.266190 159.394196,136.630692 158.348145,148.211945 
	C157.918839,152.965012 159.928757,154.467621 164.656525,154.750244 
	C174.547272,155.341537 183.491455,151.149506 193.000000,150.000000 
	C193.000000,164.311066 193.000000,178.622147 193.000000,192.966614 
	C129.121674,192.966614 65.243332,192.966614 1.000000,192.966614 
	C1.000000,177.647705 1.000000,162.292511 1.335283,146.595520 
	C10.157876,149.753281 19.228743,151.088989 28.068192,153.257126 
	C31.581087,154.118759 35.280266,154.443130 38.909191,154.559982 
	C45.108852,154.759613 45.359322,154.253708 45.664909,148.224319 
	C45.899635,143.593140 45.655258,138.702103 47.081188,134.410873 
	C51.416637,121.363670 59.387878,111.055046 72.125092,105.007164 
	C73.688492,104.264824 75.896126,104.611458 76.529129,101.963577 
	C72.739532,96.811790 68.810028,91.444984 67.859764,84.659439 
	C67.196884,79.926003 65.731201,75.974098 59.243561,75.930428 
	C62.897915,72.765785 67.696541,71.901985 68.291977,66.965363 
	C69.002052,61.078362 72.425957,56.484520 76.000267,52.157303 
	C78.200317,49.493816 81.718132,47.640266 80.486496,43.472385 
	C79.457298,39.989552 79.864967,36.293198 77.988655,32.889698 
	C71.335487,20.821314 54.394745,12.461169 39.336784,18.824875 
	C20.602488,26.742258 16.293423,52.042351 28.772089,65.796318 
	C32.680958,70.104668 37.869205,72.083420 42.382549,75.193779 
	C41.571312,76.610138 40.473309,76.301903 39.553516,76.418388 
	C28.301363,77.843544 17.912991,80.938347 10.123299,90.042244 
	C6.447438,94.338264 4.623267,99.735519 1.000000,104.000000 
M152.631638,147.565247 
	C151.763779,117.418800 133.695236,106.665276 105.856415,106.509453 
	C114.035957,104.754189 120.828796,101.443504 125.705185,94.893639 
	C130.508682,88.441689 133.600311,81.224533 132.157883,73.198700 
	C129.030319,55.796772 117.401184,46.100697 99.662415,47.368633 
	C85.425858,48.386250 75.615746,57.794697 73.725037,69.570038 
	C71.206772,85.253769 74.860474,99.572342 99.596512,106.718246 
	C93.768700,108.219269 88.499557,107.354370 83.359695,108.187050 
	C68.787262,110.547867 56.633980,122.452461 53.291039,135.687927 
	C50.594135,146.365585 51.562878,157.165848 51.400009,167.935440 
	C51.277298,176.049225 53.011269,178.188400 60.904644,179.471603 
	C67.757141,180.585632 74.488518,182.268661 81.309853,183.538620 
	C103.354752,187.642807 124.877274,185.819290 146.128372,179.189011 
	C150.538239,177.813141 152.997208,175.187424 152.719086,170.023300 
	C152.334564,162.883743 152.628098,155.707672 152.631638,147.565247 
z"/>
</svg>